# xmcd
# Track frame offsets:
# 150
# 17862
# 31730
# 48542
# 66755
#
# Disc length: 1123 seconds
# Revision: 0
# Processed by: cddbd v1.5.2PL0 Copyright (c) Steve Scherf et al.
# Submitted via: VisiTrax 2.10.3.257 - For more info visit www.synapsa.com
#
DISCID=3a046105
DTITLE=Various Artist - Sony Country Cuts
DYEAR=2000
DGENRE=
TTITLE0=McGraw, Tim - Grown men don't cry
TTITLE1=Chicks, Dixie - If I fall you're goin down with me
TTITLE2=Messina, Jo Dee - Downtime
TTITLE3=Tritt, Travis - It's a great day to be alive
TTITLE4=Billy Ray Cyrus - You wont be lonely now
EXTD=
EXTT0=
EXTT1=
EXTT2=
EXTT3=
EXTT4=
PLAYORDER=
